<svg xmlns="http://www.w3.org/2000/svg" xmlns:xlink="http://www.w3.org/1999/xlink" width="1080" zoomAndPan="magnify" viewBox="0 0 810 809.999993" height="1080" preserveAspectRatio="xMidYMid meet" version="1.0"><defs><clipPath id="c6f8fc9471"><path d="M 73.914062 0 L 736.164062 0 L 736.164062 809 L 73.914062 809 Z M 73.914062 0 " clip-rule="nonzero"/></clipPath></defs><g clip-path="url(#c6f8fc9471)"><path fill="#000000" d="M 110.675781 197.042969 L 699.273438 197.042969 L 633.074219 749.507812 C 629.042969 783.390625 597.070312 808.863281 558.640625 808.863281 L 251.324219 808.863281 C 212.871094 808.863281 180.910156 783.390625 176.859375 749.507812 Z M 127.003906 62.558594 L 301.394531 62.558594 L 301.394531 41.546875 C 301.394531 30.375 305.960938 20.226562 313.300781 12.882812 C 320.648438 5.539062 330.769531 0.996094 341.960938 0.996094 L 468 0.996094 C 479.171875 0.996094 489.3125 5.539062 496.648438 12.882812 C 504 20.226562 508.554688 30.375 508.554688 41.546875 L 508.554688 62.558594 L 682.953125 62.558594 C 697.507812 62.558594 710.769531 68.542969 720.375 78.140625 L 720.421875 78.175781 L 720.453125 78.140625 C 730.058594 87.753906 736.027344 101.03125 736.027344 115.636719 L 736.027344 150.515625 C 736.027344 160.582031 727.867188 168.746094 717.816406 168.746094 L 92.121094 168.746094 C 82.066406 168.746094 73.914062 160.582031 73.914062 150.515625 L 73.914062 115.636719 C 73.914062 101.03125 79.863281 87.753906 89.484375 78.140625 C 89.894531 77.707031 90.3125 77.328125 90.75 76.964844 C 100.257812 68.054688 113.023438 62.558594 127.003906 62.558594 Z M 337.828125 62.558594 L 472.121094 62.558594 L 472.121094 41.546875 C 472.121094 40.445312 471.632812 39.410156 470.902344 38.648438 C 470.144531 37.90625 469.089844 37.429688 468 37.429688 L 341.960938 37.429688 C 340.859375 37.429688 339.804688 37.90625 339.070312 38.648438 C 338.308594 39.410156 337.828125 40.445312 337.828125 41.546875 Z M 379.277344 261.785156 C 379.277344 246.496094 393.257812 234.128906 410.480469 234.128906 C 427.710938 234.128906 441.691406 246.496094 441.691406 261.785156 L 441.691406 744.140625 C 441.691406 759.414062 427.710938 771.773438 410.480469 771.773438 C 393.257812 771.773438 379.277344 759.414062 379.277344 744.140625 Z M 224.058594 263.179688 C 223.195312 247.960938 236.390625 235.003906 253.554688 234.242188 C 270.703125 233.453125 285.347656 245.152344 286.207031 260.375 L 315.089844 742.71875 C 315.949219 757.925781 302.757812 770.90625 285.589844 771.667969 C 268.457031 772.429688 253.808594 760.722656 252.941406 745.519531 Z M 534.757812 260.375 C 535.625 245.152344 550.253906 233.453125 567.429688 234.242188 C 584.570312 235.003906 597.761719 247.960938 596.90625 263.179688 L 568.015625 745.519531 C 567.152344 760.722656 552.503906 772.429688 535.367188 771.667969 C 518.207031 770.90625 505.003906 757.925781 505.859375 742.71875 Z M 534.757812 260.375 " fill-opacity="1" fill-rule="evenodd"/></g></svg>