<svg xmlns="http://www.w3.org/2000/svg" xmlns:xlink="http://www.w3.org/1999/xlink" width="1080" zoomAndPan="magnify" viewBox="0 0 810 809.999993" height="1080" preserveAspectRatio="xMidYMid meet" version="1.0"><defs><clipPath id="494a9d592f"><path d="M 1 2 L 807.75 2 L 807.75 808 L 1 808 Z M 1 2 " clip-rule="nonzero"/></clipPath></defs><g clip-path="url(#494a9d592f)"><path fill="#000000" d="M 774.652344 180.597656 L 704.382812 250.816406 L 558.722656 105.257812 L 628.988281 35.046875 C 633.535156 30.503906 639.628906 27.996094 646.125 27.996094 C 652.660156 27.996094 658.78125 30.515625 663.347656 35.070312 L 774.652344 146.292969 C 779.203125 150.851562 781.714844 156.941406 781.714844 163.464844 C 781.714844 169.964844 779.203125 176.050781 774.652344 180.597656 Z M 266.707031 688.15625 L 249.851562 646.941406 L 656.953125 240.160156 L 685.992188 269.1875 Z M 109.488281 748.871094 L 60.320312 699.742188 L 105.984375 564.519531 L 154.492188 584.351562 L 167.496094 632.59375 C 168.699219 637.074219 172.210938 640.558594 176.675781 641.765625 L 224.957031 654.734375 L 244.808594 703.265625 Z M 35.304688 773.867188 L 51.042969 727.210938 L 81.996094 758.144531 Z M 587.777344 171.035156 L 638.558594 221.78125 L 230.664062 629.355469 L 190.652344 618.617188 L 179.890625 578.636719 Z M 540.34375 123.636719 L 569.394531 152.664062 L 162.292969 559.457031 L 121.101562 542.625 Z M 793.039062 127.925781 L 681.71875 16.6875 C 662.75 -2.238281 629.519531 -2.253906 610.601562 16.671875 L 88.890625 538.066406 C 87.503906 539.449219 86.347656 541.230469 85.640625 543.480469 C 84.941406 545.738281 2.273438 790.417969 2.273438 790.417969 C 1.480469 792.757812 -0.0664062 797.667969 5.398438 803.757812 C 10.324219 809.242188 17.386719 807.328125 18.742188 806.871094 C 18.742188 806.871094 264.339844 724.285156 266.226562 723.460938 C 268.117188 722.636719 270.023438 721.585938 271.269531 720.34375 L 793.019531 198.980469 C 802.5 189.527344 807.730469 176.910156 807.730469 163.464844 C 807.722656 149.996094 802.5 137.386719 793.039062 127.925781 " fill-opacity="1" fill-rule="nonzero"/></g></svg>