<svg xmlns="http://www.w3.org/2000/svg" xmlns:xlink="http://www.w3.org/1999/xlink" width="100" zoomAndPan="magnify" viewBox="0 0 75 74.999997" height="100" preserveAspectRatio="xMidYMid meet" version="1.0"><path fill="#ffffff" d="M 22.050781 0 C 9.949219 0 0 9.933594 0 22.050781 L 0 52.949219 C 0 65.050781 9.933594 75 22.050781 75 L 52.949219 75 C 65.050781 75 75 65.066406 75 52.949219 L 75 22.050781 C 75 9.949219 65.066406 0 52.949219 0 Z M 22.050781 6.816406 L 52.949219 6.816406 C 61.375 6.816406 68.183594 13.621094 68.183594 22.050781 L 68.183594 52.949219 C 68.183594 61.375 61.375 68.183594 52.949219 68.183594 L 22.050781 68.183594 C 13.621094 68.183594 6.816406 61.375 6.816406 52.949219 L 6.816406 22.050781 C 6.816406 13.621094 13.621094 6.816406 22.050781 6.816406 Z M 57.636719 14.277344 C 55.917969 14.277344 54.546875 15.648438 54.546875 17.363281 C 54.546875 19.082031 55.917969 20.453125 57.636719 20.453125 C 59.351562 20.453125 60.722656 19.082031 60.722656 17.363281 C 60.722656 15.648438 59.351562 14.277344 57.636719 14.277344 Z M 37.5 17.046875 C 26.246094 17.046875 17.046875 26.246094 17.046875 37.5 C 17.046875 48.753906 26.246094 57.953125 37.5 57.953125 C 48.753906 57.953125 57.953125 48.753906 57.953125 37.5 C 57.953125 26.246094 48.753906 17.046875 37.5 17.046875 Z M 37.5 23.863281 C 45.078125 23.863281 51.136719 29.921875 51.136719 37.5 C 51.136719 45.078125 45.078125 51.136719 37.5 51.136719 C 29.921875 51.136719 23.863281 45.078125 23.863281 37.5 C 23.863281 29.921875 29.921875 23.863281 37.5 23.863281 Z M 37.5 23.863281 " fill-opacity="1" fill-rule="nonzero"/></svg>