<svg xmlns="http://www.w3.org/2000/svg" xmlns:xlink="http://www.w3.org/1999/xlink" width="1080" zoomAndPan="magnify" viewBox="0 0 810 809.999993" height="1080" preserveAspectRatio="xMidYMid meet" version="1.0"><defs><clipPath id="ec59039ba7"><path d="M 15.132812 15.132812 L 795.132812 15.132812 L 795.132812 795.132812 L 15.132812 795.132812 Z M 15.132812 15.132812 " clip-rule="nonzero"/></clipPath></defs><g clip-path="url(#ec59039ba7)"><path fill="#000000" d="M 784.777344 75.6875 L 455.265625 405.132812 L 784.777344 734.574219 C 791.195312 740.992188 795.167969 749.890625 795.167969 759.675781 C 795.167969 779.285156 779.285156 795.167969 759.675781 795.167969 C 749.890625 795.167969 740.992188 791.195312 734.574219 784.777344 L 405.132812 455.265625 L 75.6875 784.777344 C 69.269531 791.195312 60.371094 795.167969 50.585938 795.167969 C 30.980469 795.167969 15.097656 779.285156 15.097656 759.675781 C 15.097656 749.890625 19.066406 740.992188 25.484375 734.574219 L 355 405.132812 L 25.484375 75.6875 C 19.066406 69.269531 15.097656 60.371094 15.097656 50.585938 C 15.097656 30.980469 30.980469 15.097656 50.585938 15.097656 C 60.371094 15.097656 69.269531 19.066406 75.6875 25.484375 L 405.132812 355 L 734.574219 25.484375 C 740.992188 19.066406 749.890625 15.097656 759.675781 15.097656 C 779.285156 15.097656 795.167969 30.980469 795.167969 50.585938 C 795.167969 60.371094 791.195312 69.269531 784.777344 75.6875 Z M 784.777344 75.6875 " fill-opacity="1" fill-rule="nonzero"/></g></svg>