<svg xmlns="http://www.w3.org/2000/svg" xmlns:xlink="http://www.w3.org/1999/xlink" width="1080" zoomAndPan="magnify" viewBox="0 0 810 809.999993" height="1080" preserveAspectRatio="xMidYMid meet" version="1.0"><path fill="#d9d9d9" d="M 291.671875 268.730469 C 290.71875 265.394531 287.953125 263.199219 284.808594 262.339844 C 281.949219 260.816406 278.707031 260.625 276.035156 262.339844 C 270.980469 261.101562 265.644531 261.960938 261.066406 265.964844 C 248.957031 276.835938 252.675781 302.578125 252.484375 316.308594 C 252.199219 328.800781 244.476562 404.792969 279.660156 387.441406 C 280.898438 386.867188 281.949219 386.007812 282.996094 385.246094 C 287.097656 385.246094 291.292969 382.957031 292.4375 378.382812 C 302.066406 341.957031 301.875 305.058594 291.671875 268.730469 Z M 291.671875 268.730469 " fill-opacity="1" fill-rule="nonzero"/><path fill="#d9d9d9" d="M 564.753906 269.113281 C 563.894531 266.726562 561.988281 264.914062 559.699219 263.773438 C 557.316406 254.332031 543.871094 255.476562 541.203125 264.058594 C 539.484375 269.398438 538.054688 274.738281 536.816406 280.078125 C 534.335938 281.601562 532.429688 284.082031 532.046875 287.703125 C 531 298.191406 530.523438 308.679688 530.617188 318.980469 C 529.28125 337.667969 530.140625 356.449219 533.191406 375.617188 C 533.667969 378.476562 535.003906 380.382812 536.816406 381.433594 C 536.816406 381.910156 536.816406 382.386719 536.816406 382.957031 C 536.816406 393.921875 552.644531 395.925781 555.789062 385.53125 C 556.839844 382.003906 557.695312 378.476562 558.652344 374.949219 C 575.335938 341.671875 577.910156 304.484375 564.753906 269.113281 Z M 564.753906 269.113281 " fill-opacity="1" fill-rule="nonzero"/><path fill="#d9d9d9" d="M 563.609375 596.0625 C 484.5625 468.296875 321.804688 516.257812 209.957031 562.882812 C 198.707031 567.554688 203.664062 586.242188 215.109375 581.476562 C 317.894531 538.566406 472.929688 486.222656 546.921875 605.789062 C 553.5 616.371094 570.1875 606.648438 563.609375 596.0625 Z M 563.609375 596.0625 " fill-opacity="1" fill-rule="nonzero"/><path fill="#d9d9d9" d="M 785.773438 304.582031 C 750.207031 145.921875 599.078125 32.265625 433.265625 36.460938 C 277.085938 54.003906 123.953125 143.441406 55.683594 286.464844 C 19.453125 362.457031 4.671875 451.515625 34.707031 532.085938 C 61.976562 605.40625 119.949219 664.808594 186.597656 704 C 323.710938 784.664062 509.832031 784.378906 639.21875 687.789062 C 754.6875 601.5 817.523438 446.460938 785.773438 304.582031 Z M 669.160156 635.15625 C 565.421875 741.757812 403.136719 767.40625 265.453125 718.875 C 107.363281 663.1875 0 512.632812 53.871094 344.246094 C 103.359375 189.683594 255.820312 76.410156 413.527344 57.722656 C 551.214844 42.753906 687.847656 123.417969 746.011719 248.707031 C 805.699219 377.332031 766.035156 535.707031 669.160156 635.15625 Z M 669.160156 635.15625 " fill-opacity="1" fill-rule="nonzero"/></svg>