<svg xmlns="http://www.w3.org/2000/svg" xmlns:xlink="http://www.w3.org/1999/xlink" width="1080" zoomAndPan="magnify" viewBox="0 0 810 809.999993" height="1080" preserveAspectRatio="xMidYMid meet" version="1.0"><defs><clipPath id="243b6e7621"><path d="M 0 248 L 810 248 L 810 687.167969 L 0 687.167969 Z M 0 248 " clip-rule="nonzero"/></clipPath></defs><g clip-path="url(#243b6e7621)"><path fill="#100f0d" d="M 539.113281 294.273438 C 556.804688 299.957031 574.207031 306.785156 591.03125 314.625 C 665.316406 349.28125 730.96875 400.046875 783.320312 463.183594 C 785.550781 465.84375 785.550781 469.652344 783.320312 472.3125 C 730.96875 535.449219 665.316406 586.140625 591.03125 620.871094 C 574.207031 628.710938 556.804688 635.539062 539.113281 641.222656 C 634.96875 567.15625 652.515625 429.386719 578.449219 333.605469 C 567.085938 318.867188 553.855469 305.636719 539.113281 294.273438 Z M 270.816406 294.273438 C 174.957031 368.410156 157.410156 506.109375 231.480469 601.890625 C 242.839844 616.628906 256.074219 629.859375 270.816406 641.222656 C 253.054688 635.539062 235.652344 628.710938 218.824219 620.871094 C 144.539062 586.140625 78.957031 535.449219 26.605469 472.3125 C 24.378906 469.652344 24.378906 465.84375 26.605469 463.183594 C 78.957031 400.046875 144.539062 349.355469 218.824219 314.625 C 235.652344 306.785156 253.054688 299.957031 270.816406 294.347656 Z M 401.691406 271.050781 C 509.054688 269.25 597.359375 354.820312 599.230469 462.101562 C 599.230469 463.972656 599.230469 465.914062 599.230469 467.785156 C 600.597656 575.066406 514.808594 663.226562 407.515625 664.664062 C 300.15625 666.027344 211.992188 580.171875 210.625 472.890625 C 210.625 471.164062 210.625 469.4375 210.625 467.785156 C 209.257812 360.714844 294.6875 272.773438 401.691406 271.050781 Z M 422.1875 248.613281 C 348.476562 245.882812 275.128906 260.765625 208.324219 291.972656 C 130.734375 328.285156 62.058594 381.28125 7.40625 447.21875 C -2.445312 459.15625 -2.445312 476.414062 7.40625 488.277344 C 62.058594 554.214844 130.734375 607.210938 208.324219 643.523438 C 332.945312 701.765625 477.054688 701.765625 601.746094 643.523438 C 679.265625 607.210938 747.941406 554.214844 802.59375 488.277344 C 812.445312 476.414062 812.445312 459.15625 802.59375 447.21875 C 747.941406 381.28125 679.265625 328.285156 601.746094 291.972656 C 545.371094 265.65625 484.316406 250.914062 422.1875 248.613281 " fill-opacity="1" fill-rule="nonzero"/></g><path fill="#100f0d" d="M 478.636719 467.785156 C 479.425781 427.085938 447.210938 393.433594 406.511719 392.570312 C 365.808594 391.707031 332.15625 423.992188 331.292969 464.691406 C 331.292969 465.699219 331.292969 466.707031 331.292969 467.785156 C 330.429688 508.410156 362.714844 542.136719 403.417969 542.925781 C 444.121094 543.789062 477.773438 511.503906 478.636719 470.804688 C 478.636719 469.796875 478.636719 468.789062 478.636719 467.785156 " fill-opacity="1" fill-rule="nonzero"/><path fill="#100f0d" d="M 144.753906 212.375 L 194.589844 253.933594 C 199.984375 258.25 207.820312 257.386719 212.136719 251.992188 C 216.308594 246.816406 215.660156 239.195312 210.554688 234.738281 L 160.71875 193.175781 C 155.328125 188.859375 147.488281 189.722656 143.171875 195.117188 C 138.929688 200.367188 139.648438 207.988281 144.753906 212.375 " fill-opacity="1" fill-rule="nonzero"/><path fill="#100f0d" d="M 649.136719 193.175781 L 599.230469 234.738281 C 593.980469 239.195312 593.261719 247.105469 597.648438 252.351562 C 602.179688 257.675781 610.015625 258.394531 615.339844 253.933594 L 665.171875 212.375 C 670.351562 207.84375 670.996094 199.933594 666.394531 194.757812 C 662.007812 189.652344 654.457031 189.003906 649.136719 193.175781 " fill-opacity="1" fill-rule="nonzero"/><path fill="#100f0d" d="M 392.488281 134.425781 L 392.488281 199.285156 C 392.703125 206.191406 398.527344 211.582031 405.429688 211.296875 C 411.976562 211.007812 417.152344 205.832031 417.441406 199.285156 L 417.441406 134.425781 C 417.152344 127.523438 411.398438 122.132812 404.425781 122.417969 C 397.953125 122.707031 392.703125 127.882812 392.488281 134.425781 " fill-opacity="1" fill-rule="nonzero"/></svg>