<svg xmlns="http://www.w3.org/2000/svg" xmlns:xlink="http://www.w3.org/1999/xlink" width="1080" zoomAndPan="magnify" viewBox="0 0 810 809.999993" height="1080" preserveAspectRatio="xMidYMid meet" version="1.0"><defs><clipPath id="b5057b1f7f"><path d="M 0 0 L 806.25 0 L 806.25 810 L 0 810 Z M 0 0 " clip-rule="nonzero"/></clipPath></defs><g clip-path="url(#b5057b1f7f)"><path fill="#ffffff" d="M 688.496094 117.710938 C 612.710938 41.765625 511.902344 0.00390625 404.542969 0.00390625 C 183.367188 0.00390625 3.351562 180.03125 3.351562 401.355469 C 3.351562 472.050781 21.871094 541.207031 56.957031 601.976562 L 0 809.996094 L 212.785156 754.15625 C 271.460938 786.117188 337.476562 803.0625 404.496094 803.0625 L 404.65625 803.0625 C 625.835938 803.0625 806.011719 623.035156 806.011719 401.710938 C 806.011719 294.4375 764.246094 193.6875 688.464844 117.777344 Z M 404.65625 735.347656 C 344.71875 735.347656 286.007812 719.195312 234.769531 688.804688 L 222.554688 681.515625 L 96.292969 714.582031 L 130.019531 591.507812 L 122.113281 578.875 C 88.546875 525.851562 71.019531 464.503906 71.019531 401.386719 C 71.019531 217.421875 220.675781 67.703125 404.835938 67.703125 C 493.886719 67.703125 577.785156 102.515625 640.722656 165.453125 C 703.691406 228.582031 738.3125 312.273438 738.3125 401.484375 C 738.164062 585.582031 588.511719 735.300781 404.625 735.300781 Z M 587.539062 485.398438 C 577.574219 480.328125 528.199219 456.144531 519.046875 452.789062 C 509.875 449.4375 503.203125 447.71875 496.398438 457.859375 C 489.753906 467.824219 470.476562 490.472656 464.597656 497.242188 C 458.714844 503.882812 452.902344 504.839844 442.9375 499.769531 C 432.976562 494.699219 400.527344 484.121094 362.261719 449.9375 C 332.503906 423.371094 312.316406 390.46875 306.4375 380.503906 C 300.558594 370.542969 305.789062 365.003906 310.890625 360.109375 C 315.507812 355.640625 320.871094 348.414062 325.925781 342.550781 C 330.996094 336.667969 332.566406 332.570312 335.90625 325.78125 C 339.257812 319.140625 337.621094 313.261719 335.09375 308.222656 C 332.566406 303.167969 312.449219 253.789062 304.265625 233.6875 C 296.214844 214.035156 287.808594 216.773438 281.636719 216.433594 C 275.753906 216.140625 269.113281 216.140625 262.488281 216.140625 C 255.859375 216.140625 244.925781 218.652344 235.757812 228.648438 C 226.589844 238.609375 200.621094 262.976562 200.621094 312.335938 C 200.621094 361.699219 236.519531 409.324219 241.574219 416.113281 C 246.644531 422.738281 312.300781 524.148438 412.886719 567.535156 C 436.78125 577.804688 455.460938 583.992188 470.007812 588.753906 C 494.066406 596.335938 515.886719 595.234375 533.140625 592.691406 C 552.433594 589.855469 592.480469 568.472656 600.871094 545.046875 C 609.261719 521.605469 609.261719 501.550781 606.75 497.402344 C 604.371094 492.933594 597.742188 490.472656 587.601562 485.335938 Z M 587.539062 485.398438 " fill-opacity="1" fill-rule="evenodd"/></g></svg>