<svg xmlns="http://www.w3.org/2000/svg" xmlns:xlink="http://www.w3.org/1999/xlink" width="1080" zoomAndPan="magnify" viewBox="0 0 810 809.999993" height="1080" preserveAspectRatio="xMidYMid meet" version="1.0"><path fill="#ffffff" d="M 799.25 62.886719 L 457.0625 405 L 799.25 747.113281 C 805.914062 753.777344 810.035156 763.019531 810.035156 773.183594 C 810.035156 793.542969 793.542969 810.035156 773.183594 810.035156 C 763.019531 810.035156 753.777344 805.914062 747.113281 799.25 L 405 457.0625 L 62.886719 799.25 C 56.222656 805.914062 46.980469 810.035156 36.816406 810.035156 C 16.457031 810.035156 -0.0351562 793.542969 -0.0351562 773.183594 C -0.0351562 763.019531 4.085938 753.777344 10.75 747.113281 L 352.9375 405 L 10.75 62.886719 C 4.085938 56.222656 -0.0351562 46.980469 -0.0351562 36.816406 C -0.0351562 16.457031 16.457031 -0.0351562 36.816406 -0.0351562 C 46.980469 -0.0351562 56.222656 4.085938 62.886719 10.75 L 405 352.9375 L 747.113281 10.75 C 753.777344 4.085938 763.019531 -0.0351562 773.183594 -0.0351562 C 793.542969 -0.0351562 810.035156 16.457031 810.035156 36.816406 C 810.035156 46.980469 805.914062 56.222656 799.25 62.886719 Z M 799.25 62.886719 " fill-opacity="1" fill-rule="nonzero"/></svg>